<svg width="223" height="66" viewBox="0 0 223 66" fill="none" xmlns="http://www.w3.org/2000/svg">
<rect x="0.767456" width="221.919" height="65.3365" rx="4.50597" fill="#2B2D36"/>
<path d="M51.9967 34.3457C51.9774 31.0513 53.47 28.5684 56.4843 26.7377C54.7984 24.3224 52.2479 22.9941 48.8859 22.738C45.7026 22.4869 42.2199 24.5929 40.9446 24.5929C39.5969 24.5929 36.5151 22.825 34.0902 22.825C29.0858 22.9023 23.7675 26.815 23.7675 34.7756C23.7675 37.128 24.1974 39.5578 25.0572 42.0599C26.2068 45.3543 30.3514 53.426 34.6747 53.2956C36.9353 53.2425 38.5342 51.6919 41.476 51.6919C44.3308 51.6919 45.8089 53.2956 48.3304 53.2956C52.6923 53.2328 56.4408 45.8953 57.5325 42.5913C51.6828 39.8331 51.9967 34.5147 51.9967 34.3457ZM46.9199 19.6127C49.369 16.7048 49.1468 14.0577 49.0743 13.1061C46.9103 13.2317 44.4081 14.5794 42.9831 16.2362C41.4132 18.0138 40.4906 20.2117 40.6886 22.6897C43.0266 22.8685 45.1616 21.6657 46.9199 19.6127Z" fill="white"/>
<path d="M90.0125 23.6496C90.0125 24.6096 89.8631 25.447 89.5645 26.1616C89.2658 26.8656 88.8445 27.4523 88.3005 27.9216C87.7565 28.3803 87.1058 28.727 86.3485 28.9616C85.5911 29.1856 84.7591 29.2976 83.8525 29.2976C83.4045 29.2976 82.9085 29.2763 82.3645 29.2336C81.8311 29.2016 81.3458 29.1323 80.9085 29.0256V18.2736C81.3458 18.167 81.8311 18.0976 82.3645 18.0656C82.9085 18.023 83.4045 18.0016 83.8525 18.0016C84.7591 18.0016 85.5911 18.119 86.3485 18.3536C87.1058 18.5776 87.7565 18.9243 88.3005 19.3936C88.8445 19.8523 89.2658 20.439 89.5645 21.1536C89.8631 21.8576 90.0125 22.6896 90.0125 23.6496ZM83.9805 27.9376C85.4525 27.9376 86.5511 27.5643 87.2765 26.8176C88.0018 26.0603 88.3645 25.0043 88.3645 23.6496C88.3645 22.295 88.0018 21.2443 87.2765 20.4976C86.5511 19.7403 85.4525 19.3616 83.9805 19.3616C83.5431 19.3616 83.2018 19.367 82.9565 19.3776C82.7218 19.3883 82.5565 19.399 82.4605 19.4096V27.8896C82.5565 27.9003 82.7218 27.911 82.9565 27.9216C83.2018 27.9323 83.5431 27.9376 83.9805 27.9376ZM99.2427 25.0416C99.2427 25.703 99.1467 26.3003 98.9547 26.8336C98.7627 27.367 98.4907 27.8256 98.1387 28.2096C97.7974 28.5936 97.3867 28.8923 96.9067 29.1056C96.4267 29.3083 95.9041 29.4096 95.3387 29.4096C94.7734 29.4096 94.2507 29.3083 93.7707 29.1056C93.2907 28.8923 92.8747 28.5936 92.5227 28.2096C92.1814 27.8256 91.9147 27.367 91.7227 26.8336C91.5307 26.3003 91.4347 25.703 91.4347 25.0416C91.4347 24.391 91.5307 23.799 91.7227 23.2656C91.9147 22.7216 92.1814 22.2576 92.5227 21.8736C92.8747 21.4896 93.2907 21.1963 93.7707 20.9936C94.2507 20.7803 94.7734 20.6736 95.3387 20.6736C95.9041 20.6736 96.4267 20.7803 96.9067 20.9936C97.3867 21.1963 97.7974 21.4896 98.1387 21.8736C98.4907 22.2576 98.7627 22.7216 98.9547 23.2656C99.1467 23.799 99.2427 24.391 99.2427 25.0416ZM97.6907 25.0416C97.6907 24.103 97.4774 23.3616 97.0507 22.8176C96.6347 22.263 96.0641 21.9856 95.3387 21.9856C94.6134 21.9856 94.0374 22.263 93.6107 22.8176C93.1947 23.3616 92.9867 24.103 92.9867 25.0416C92.9867 25.9803 93.1947 26.727 93.6107 27.2816C94.0374 27.8256 94.6134 28.0976 95.3387 28.0976C96.0641 28.0976 96.6347 27.8256 97.0507 27.2816C97.4774 26.727 97.6907 25.9803 97.6907 25.0416ZM107.613 29.2016C107.314 28.4336 106.994 27.559 106.653 26.5776C106.322 25.5856 106.018 24.5563 105.741 23.4896C105.464 24.5563 105.16 25.5856 104.829 26.5776C104.498 27.559 104.184 28.4336 103.885 29.2016H102.589C102.098 28.103 101.618 26.8496 101.149 25.4416C100.68 24.0336 100.237 22.5136 99.8211 20.8816H101.421C101.528 21.383 101.656 21.927 101.805 22.5136C101.954 23.1003 102.109 23.687 102.269 24.2736C102.44 24.8603 102.616 25.4256 102.797 25.9696C102.978 26.5136 103.149 26.9883 103.309 27.3936C103.49 26.8923 103.666 26.3643 103.837 25.8096C104.018 25.2443 104.189 24.679 104.349 24.1136C104.509 23.5376 104.658 22.9776 104.797 22.4336C104.946 21.879 105.074 21.3616 105.181 20.8816H106.413C106.509 21.3616 106.626 21.879 106.765 22.4336C106.904 22.9776 107.053 23.5376 107.213 24.1136C107.373 24.679 107.538 25.2443 107.709 25.8096C107.89 26.3643 108.072 26.8923 108.253 27.3936C108.413 26.9883 108.578 26.5136 108.749 25.9696C108.93 25.4256 109.106 24.8603 109.277 24.2736C109.448 23.687 109.608 23.1003 109.757 22.5136C109.906 21.927 110.034 21.383 110.141 20.8816H111.677C111.261 22.5136 110.818 24.0336 110.349 25.4416C109.88 26.8496 109.4 28.103 108.909 29.2016H107.613ZM112.931 21.1216C113.272 21.0363 113.725 20.9456 114.291 20.8496C114.856 20.7536 115.507 20.7056 116.243 20.7056C116.904 20.7056 117.453 20.8016 117.891 20.9936C118.328 21.175 118.675 21.4363 118.931 21.7776C119.197 22.1083 119.384 22.5083 119.491 22.9776C119.597 23.447 119.651 23.9643 119.651 24.5296V29.2016H118.163V24.8496C118.163 24.3376 118.125 23.9003 118.051 23.5376C117.987 23.175 117.875 22.8816 117.715 22.6576C117.555 22.4336 117.341 22.2736 117.075 22.1776C116.808 22.071 116.477 22.0176 116.083 22.0176C115.923 22.0176 115.757 22.023 115.587 22.0336C115.416 22.0443 115.251 22.0603 115.091 22.0816C114.941 22.0923 114.803 22.1083 114.675 22.1296C114.557 22.151 114.472 22.167 114.419 22.1776V29.2016H112.931V21.1216ZM124.294 29.3616C123.377 29.3403 122.726 29.143 122.342 28.7696C121.958 28.3963 121.766 27.815 121.766 27.0256V17.0416L123.254 16.7856V26.7856C123.254 27.031 123.275 27.2336 123.318 27.3936C123.361 27.5536 123.43 27.6816 123.526 27.7776C123.622 27.8736 123.75 27.9483 123.91 28.0016C124.07 28.0443 124.267 28.0816 124.502 28.1136L124.294 29.3616ZM133.197 25.0416C133.197 25.703 133.101 26.3003 132.909 26.8336C132.717 27.367 132.445 27.8256 132.093 28.2096C131.752 28.5936 131.341 28.8923 130.861 29.1056C130.381 29.3083 129.858 29.4096 129.293 29.4096C128.728 29.4096 128.205 29.3083 127.725 29.1056C127.245 28.8923 126.829 28.5936 126.477 28.2096C126.136 27.8256 125.869 27.367 125.677 26.8336C125.485 26.3003 125.389 25.703 125.389 25.0416C125.389 24.391 125.485 23.799 125.677 23.2656C125.869 22.7216 126.136 22.2576 126.477 21.8736C126.829 21.4896 127.245 21.1963 127.725 20.9936C128.205 20.7803 128.728 20.6736 129.293 20.6736C129.858 20.6736 130.381 20.7803 130.861 20.9936C131.341 21.1963 131.752 21.4896 132.093 21.8736C132.445 22.2576 132.717 22.7216 132.909 23.2656C133.101 23.799 133.197 24.391 133.197 25.0416ZM131.645 25.0416C131.645 24.103 131.432 23.3616 131.005 22.8176C130.589 22.263 130.018 21.9856 129.293 21.9856C128.568 21.9856 127.992 22.263 127.565 22.8176C127.149 23.3616 126.941 24.103 126.941 25.0416C126.941 25.9803 127.149 26.727 127.565 27.2816C127.992 27.8256 128.568 28.0976 129.293 28.0976C130.018 28.0976 130.589 27.8256 131.005 27.2816C131.432 26.727 131.645 25.9803 131.645 25.0416ZM137.787 28.1296C138.139 28.1296 138.448 28.1243 138.715 28.1136C138.992 28.0923 139.221 28.0603 139.403 28.0176V25.5376C139.296 25.4843 139.12 25.4416 138.875 25.4096C138.64 25.367 138.352 25.3456 138.011 25.3456C137.787 25.3456 137.547 25.3616 137.291 25.3936C137.045 25.4256 136.816 25.495 136.603 25.6016C136.4 25.6976 136.229 25.8363 136.091 26.0176C135.952 26.1883 135.883 26.4176 135.883 26.7056C135.883 27.239 136.053 27.6123 136.395 27.8256C136.736 28.0283 137.2 28.1296 137.787 28.1296ZM137.659 20.6736C138.256 20.6736 138.757 20.7536 139.163 20.9136C139.579 21.063 139.909 21.2816 140.155 21.5696C140.411 21.847 140.592 22.183 140.699 22.5776C140.805 22.9616 140.859 23.3883 140.859 23.8576V29.0576C140.731 29.079 140.549 29.111 140.315 29.1536C140.091 29.1856 139.835 29.2176 139.547 29.2496C139.259 29.2816 138.944 29.3083 138.603 29.3296C138.272 29.3616 137.941 29.3776 137.611 29.3776C137.141 29.3776 136.709 29.3296 136.315 29.2336C135.92 29.1376 135.579 28.9883 135.291 28.7856C135.003 28.5723 134.779 28.295 134.619 27.9536C134.459 27.6123 134.379 27.2016 134.379 26.7216C134.379 26.263 134.469 25.8683 134.651 25.5376C134.843 25.207 135.099 24.9403 135.419 24.7376C135.739 24.535 136.112 24.3856 136.539 24.2896C136.965 24.1936 137.413 24.1456 137.883 24.1456C138.032 24.1456 138.187 24.1563 138.347 24.1776C138.507 24.1883 138.656 24.2096 138.795 24.2416C138.944 24.263 139.072 24.2843 139.179 24.3056C139.285 24.327 139.36 24.343 139.403 24.3536V23.9376C139.403 23.6923 139.376 23.4523 139.323 23.2176C139.269 22.9723 139.173 22.759 139.035 22.5776C138.896 22.3856 138.704 22.2363 138.459 22.1296C138.224 22.0123 137.915 21.9536 137.531 21.9536C137.04 21.9536 136.608 21.991 136.235 22.0656C135.872 22.1296 135.6 22.199 135.419 22.2736L135.243 21.0416C135.435 20.9563 135.755 20.8763 136.203 20.8016C136.651 20.7163 137.136 20.6736 137.659 20.6736ZM148.386 22.6416C148.205 22.4923 147.943 22.3483 147.602 22.2096C147.261 22.071 146.887 22.0016 146.482 22.0016C146.055 22.0016 145.687 22.0816 145.378 22.2416C145.079 22.391 144.834 22.6043 144.642 22.8816C144.45 23.1483 144.311 23.4683 144.226 23.8416C144.141 24.215 144.098 24.615 144.098 25.0416C144.098 26.0123 144.338 26.7643 144.818 27.2976C145.298 27.8203 145.938 28.0816 146.738 28.0816C147.143 28.0816 147.479 28.0656 147.746 28.0336C148.023 27.991 148.237 27.9483 148.386 27.9056V22.6416ZM148.386 17.0416L149.874 16.7856V28.9616C149.533 29.0576 149.095 29.1536 148.562 29.2496C148.029 29.3456 147.415 29.3936 146.722 29.3936C146.082 29.3936 145.506 29.2923 144.994 29.0896C144.482 28.887 144.045 28.599 143.682 28.2256C143.319 27.8523 143.037 27.399 142.834 26.8656C142.642 26.3216 142.546 25.7136 142.546 25.0416C142.546 24.4016 142.626 23.815 142.786 23.2816C142.957 22.7483 143.202 22.2896 143.522 21.9056C143.842 21.5216 144.231 21.223 144.69 21.0096C145.159 20.7963 145.693 20.6896 146.29 20.6896C146.77 20.6896 147.191 20.7536 147.554 20.8816C147.927 21.0096 148.205 21.1323 148.386 21.2496V17.0416ZM162.839 25.0416C162.839 25.703 162.743 26.3003 162.551 26.8336C162.359 27.367 162.087 27.8256 161.735 28.2096C161.394 28.5936 160.983 28.8923 160.503 29.1056C160.023 29.3083 159.5 29.4096 158.935 29.4096C158.37 29.4096 157.847 29.3083 157.367 29.1056C156.887 28.8923 156.471 28.5936 156.119 28.2096C155.778 27.8256 155.511 27.367 155.319 26.8336C155.127 26.3003 155.031 25.703 155.031 25.0416C155.031 24.391 155.127 23.799 155.319 23.2656C155.511 22.7216 155.778 22.2576 156.119 21.8736C156.471 21.4896 156.887 21.1963 157.367 20.9936C157.847 20.7803 158.37 20.6736 158.935 20.6736C159.5 20.6736 160.023 20.7803 160.503 20.9936C160.983 21.1963 161.394 21.4896 161.735 21.8736C162.087 22.2576 162.359 22.7216 162.551 23.2656C162.743 23.799 162.839 24.391 162.839 25.0416ZM161.287 25.0416C161.287 24.103 161.074 23.3616 160.647 22.8176C160.231 22.263 159.66 21.9856 158.935 21.9856C158.21 21.9856 157.634 22.263 157.207 22.8176C156.791 23.3616 156.583 24.103 156.583 25.0416C156.583 25.9803 156.791 26.727 157.207 27.2816C157.634 27.8256 158.21 28.0976 158.935 28.0976C159.66 28.0976 160.231 27.8256 160.647 27.2816C161.074 26.727 161.287 25.9803 161.287 25.0416ZM164.612 21.1216C164.954 21.0363 165.407 20.9456 165.972 20.8496C166.538 20.7536 167.188 20.7056 167.924 20.7056C168.586 20.7056 169.135 20.8016 169.572 20.9936C170.01 21.175 170.356 21.4363 170.612 21.7776C170.879 22.1083 171.066 22.5083 171.172 22.9776C171.279 23.447 171.332 23.9643 171.332 24.5296V29.2016H169.844V24.8496C169.844 24.3376 169.807 23.9003 169.732 23.5376C169.668 23.175 169.556 22.8816 169.396 22.6576C169.236 22.4336 169.023 22.2736 168.756 22.1776C168.49 22.071 168.159 22.0176 167.764 22.0176C167.604 22.0176 167.439 22.023 167.268 22.0336C167.098 22.0443 166.932 22.0603 166.772 22.0816C166.623 22.0923 166.484 22.1083 166.356 22.1296C166.239 22.151 166.154 22.167 166.1 22.1776V29.2016H164.612V21.1216ZM178.255 20.8816H181.407V22.1296H178.255V25.9696C178.255 26.3856 178.287 26.7323 178.351 27.0096C178.415 27.2763 178.511 27.4896 178.639 27.6496C178.767 27.799 178.927 27.9056 179.119 27.9696C179.311 28.0336 179.535 28.0656 179.791 28.0656C180.239 28.0656 180.596 28.0176 180.863 27.9216C181.14 27.815 181.332 27.7403 181.439 27.6976L181.727 28.9296C181.578 29.0043 181.316 29.095 180.943 29.2016C180.57 29.319 180.143 29.3776 179.663 29.3776C179.098 29.3776 178.628 29.3083 178.255 29.1696C177.892 29.0203 177.599 28.8016 177.375 28.5136C177.151 28.2256 176.991 27.8736 176.895 27.4576C176.81 27.031 176.767 26.5403 176.767 25.9856V18.5616L178.255 18.3056V20.8816ZM182.981 29.2016V17.0416L184.469 16.7856V21.0416C184.746 20.935 185.039 20.855 185.349 20.8016C185.669 20.7376 185.983 20.7056 186.293 20.7056C186.954 20.7056 187.503 20.8016 187.941 20.9936C188.378 21.175 188.725 21.4363 188.981 21.7776C189.247 22.1083 189.434 22.5083 189.541 22.9776C189.647 23.447 189.701 23.9643 189.701 24.5296V29.2016H188.213V24.8496C188.213 24.3376 188.175 23.9003 188.101 23.5376C188.037 23.175 187.925 22.8816 187.765 22.6576C187.605 22.4336 187.391 22.2736 187.125 22.1776C186.858 22.071 186.527 22.0176 186.133 22.0176C185.973 22.0176 185.807 22.0283 185.637 22.0496C185.466 22.071 185.301 22.0976 185.141 22.1296C184.991 22.151 184.853 22.1776 184.725 22.2096C184.607 22.2416 184.522 22.2683 184.469 22.2896V29.2016H182.981ZM191.337 25.0576C191.337 24.3216 191.444 23.6816 191.657 23.1376C191.871 22.583 192.153 22.1243 192.505 21.7616C192.857 21.399 193.263 21.127 193.721 20.9456C194.18 20.7643 194.649 20.6736 195.129 20.6736C196.249 20.6736 197.108 21.0256 197.705 21.7296C198.303 22.423 198.601 23.4843 198.601 24.9136C198.601 24.9776 198.601 25.063 198.601 25.1696C198.601 25.2656 198.596 25.3563 198.585 25.4416H192.889C192.953 26.3056 193.204 26.9616 193.641 27.4096C194.079 27.8576 194.761 28.0816 195.689 28.0816C196.212 28.0816 196.649 28.039 197.001 27.9536C197.364 27.8576 197.636 27.767 197.817 27.6816L198.025 28.9296C197.844 29.0256 197.524 29.127 197.065 29.2336C196.617 29.3403 196.105 29.3936 195.529 29.3936C194.804 29.3936 194.175 29.287 193.641 29.0736C193.119 28.8496 192.687 28.5456 192.345 28.1616C192.004 27.7776 191.748 27.3243 191.577 26.8016C191.417 26.2683 191.337 25.687 191.337 25.0576ZM197.049 24.2416C197.06 23.5696 196.889 23.0203 196.537 22.5936C196.196 22.1563 195.721 21.9376 195.113 21.9376C194.772 21.9376 194.468 22.007 194.201 22.1456C193.945 22.2736 193.727 22.4443 193.545 22.6576C193.364 22.871 193.22 23.1163 193.113 23.3936C193.017 23.671 192.953 23.9536 192.921 24.2416H197.049ZM88.2205 49.2016C88.0711 48.7643 87.9165 48.3323 87.7565 47.9056C87.5965 47.479 87.4418 47.0416 87.2925 46.5936H82.6205C82.4711 47.0416 82.3165 47.4843 82.1565 47.9216C82.0071 48.3483 81.8578 48.775 81.7085 49.2016H79.6125C80.0285 48.0176 80.4231 46.9243 80.7965 45.9216C81.1698 44.919 81.5325 43.9696 81.8845 43.0736C82.2471 42.1776 82.6045 41.3243 82.9565 40.5136C83.3085 39.703 83.6711 38.903 84.0445 38.1136H85.9485C86.3218 38.903 86.6845 39.703 87.0365 40.5136C87.3885 41.3243 87.7405 42.1776 88.0925 43.0736C88.4551 43.9696 88.8231 44.919 89.1965 45.9216C89.5805 46.9243 89.9805 48.0176 90.3965 49.2016H88.2205ZM84.9565 40.2576C84.7111 40.823 84.4285 41.511 84.1085 42.3216C83.7991 43.1323 83.4738 44.0123 83.1325 44.9616H86.7805C86.4391 44.0123 86.1085 43.127 85.7885 42.3056C85.4685 41.4843 85.1911 40.8016 84.9565 40.2576ZM96.934 45.0576C96.934 44.1936 96.7366 43.5216 96.342 43.0416C95.958 42.5616 95.334 42.3216 94.47 42.3216C94.2886 42.3216 94.0966 42.3323 93.894 42.3536C93.702 42.3643 93.51 42.3963 93.318 42.4496V47.2336C93.4886 47.351 93.7126 47.463 93.99 47.5696C94.278 47.6656 94.582 47.7136 94.902 47.7136C95.606 47.7136 96.118 47.4736 96.438 46.9936C96.7686 46.5136 96.934 45.8683 96.934 45.0576ZM98.918 45.0256C98.918 45.6656 98.8326 46.2523 98.662 46.7856C98.502 47.319 98.2673 47.7776 97.958 48.1616C97.6486 48.5456 97.2593 48.8443 96.79 49.0576C96.3313 49.271 95.8086 49.3776 95.222 49.3776C94.8273 49.3776 94.4646 49.3296 94.134 49.2336C93.8033 49.1376 93.5313 49.031 93.318 48.9136V52.1616H91.382V41.1056C91.7766 40.999 92.262 40.8976 92.838 40.8016C93.414 40.7056 94.022 40.6576 94.662 40.6576C95.3233 40.6576 95.9153 40.759 96.438 40.9616C96.9606 41.1643 97.4033 41.4576 97.766 41.8416C98.1393 42.215 98.422 42.6736 98.614 43.2176C98.8166 43.751 98.918 44.3536 98.918 45.0256ZM106.145 45.0576C106.145 44.1936 105.948 43.5216 105.553 43.0416C105.169 42.5616 104.545 42.3216 103.681 42.3216C103.5 42.3216 103.308 42.3323 103.105 42.3536C102.913 42.3643 102.721 42.3963 102.529 42.4496V47.2336C102.7 47.351 102.924 47.463 103.201 47.5696C103.489 47.6656 103.793 47.7136 104.113 47.7136C104.817 47.7136 105.329 47.4736 105.649 46.9936C105.98 46.5136 106.145 45.8683 106.145 45.0576ZM108.129 45.0256C108.129 45.6656 108.044 46.2523 107.873 46.7856C107.713 47.319 107.479 47.7776 107.169 48.1616C106.86 48.5456 106.471 48.8443 106.001 49.0576C105.543 49.271 105.02 49.3776 104.433 49.3776C104.039 49.3776 103.676 49.3296 103.345 49.2336C103.015 49.1376 102.743 49.031 102.529 48.9136V52.1616H100.593V41.1056C100.988 40.999 101.473 40.8976 102.049 40.8016C102.625 40.7056 103.233 40.6576 103.873 40.6576C104.535 40.6576 105.127 40.759 105.649 40.9616C106.172 41.1643 106.615 41.4576 106.977 41.8416C107.351 42.215 107.633 42.6736 107.825 43.2176C108.028 43.751 108.129 44.3536 108.129 45.0256ZM115.315 47.8096C115.827 47.8096 116.2 47.751 116.435 47.6336C116.67 47.5056 116.787 47.2923 116.787 46.9936C116.787 46.7163 116.659 46.487 116.403 46.3056C116.158 46.1243 115.747 45.927 115.171 45.7136C114.819 45.5856 114.494 45.4523 114.195 45.3136C113.907 45.1643 113.656 44.9936 113.443 44.8016C113.23 44.6096 113.059 44.3803 112.931 44.1136C112.814 43.8363 112.755 43.5003 112.755 43.1056C112.755 42.3376 113.038 41.735 113.603 41.2976C114.168 40.8496 114.936 40.6256 115.907 40.6256C116.398 40.6256 116.867 40.6736 117.315 40.7696C117.763 40.855 118.099 40.9403 118.323 41.0256L117.971 42.5936C117.758 42.4976 117.486 42.4123 117.155 42.3376C116.824 42.2523 116.44 42.2096 116.003 42.2096C115.608 42.2096 115.288 42.279 115.043 42.4176C114.798 42.5456 114.675 42.7483 114.675 43.0256C114.675 43.1643 114.696 43.287 114.739 43.3936C114.792 43.5003 114.878 43.6016 114.995 43.6976C115.112 43.783 115.267 43.8736 115.459 43.9696C115.651 44.055 115.886 44.1456 116.163 44.2416C116.622 44.4123 117.011 44.583 117.331 44.7536C117.651 44.9136 117.912 45.1003 118.115 45.3136C118.328 45.5163 118.483 45.751 118.579 46.0176C118.675 46.2843 118.723 46.6043 118.723 46.9776C118.723 47.7776 118.424 48.3856 117.827 48.8016C117.24 49.207 116.398 49.4096 115.299 49.4096C114.563 49.4096 113.971 49.3456 113.523 49.2176C113.075 49.1003 112.76 49.0043 112.579 48.9296L112.915 47.3136C113.203 47.431 113.544 47.543 113.939 47.6496C114.344 47.7563 114.803 47.8096 115.315 47.8096ZM120.115 38.6256L122.051 38.3056V40.8336H125.027V42.4496H122.051V45.8576C122.051 46.5296 122.158 47.0096 122.371 47.2976C122.585 47.5856 122.947 47.7296 123.459 47.7296C123.811 47.7296 124.121 47.6923 124.387 47.6176C124.665 47.543 124.883 47.4736 125.043 47.4096L125.363 48.9456C125.139 49.0416 124.846 49.1376 124.483 49.2336C124.121 49.3403 123.694 49.3936 123.203 49.3936C122.606 49.3936 122.105 49.3136 121.699 49.1536C121.305 48.9936 120.99 48.7643 120.755 48.4656C120.521 48.1563 120.355 47.7883 120.259 47.3616C120.163 46.9243 120.115 46.4283 120.115 45.8736V38.6256ZM133.959 45.0096C133.959 45.671 133.863 46.2736 133.671 46.8176C133.479 47.3616 133.207 47.8256 132.855 48.2096C132.503 48.5936 132.077 48.8923 131.575 49.1056C131.085 49.319 130.541 49.4256 129.943 49.4256C129.346 49.4256 128.802 49.319 128.311 49.1056C127.821 48.8923 127.399 48.5936 127.047 48.2096C126.695 47.8256 126.418 47.3616 126.215 46.8176C126.023 46.2736 125.927 45.671 125.927 45.0096C125.927 44.3483 126.023 43.751 126.215 43.2176C126.418 42.6736 126.695 42.2096 127.047 41.8256C127.41 41.4416 127.837 41.1483 128.327 40.9456C128.818 40.7323 129.357 40.6256 129.943 40.6256C130.53 40.6256 131.069 40.7323 131.559 40.9456C132.061 41.1483 132.487 41.4416 132.839 41.8256C133.191 42.2096 133.463 42.6736 133.655 43.2176C133.858 43.751 133.959 44.3483 133.959 45.0096ZM131.975 45.0096C131.975 44.1776 131.794 43.5216 131.431 43.0416C131.079 42.551 130.583 42.3056 129.943 42.3056C129.303 42.3056 128.802 42.551 128.439 43.0416C128.087 43.5216 127.911 44.1776 127.911 45.0096C127.911 45.8523 128.087 46.519 128.439 47.0096C128.802 47.5003 129.303 47.7456 129.943 47.7456C130.583 47.7456 131.079 47.5003 131.431 47.0096C131.794 46.519 131.975 45.8523 131.975 45.0096ZM140.402 42.5776C140.242 42.5243 140.018 42.471 139.73 42.4176C139.453 42.3536 139.127 42.3216 138.754 42.3216C138.541 42.3216 138.311 42.343 138.066 42.3856C137.831 42.4283 137.666 42.4656 137.57 42.4976V49.2016H135.634V41.2336C136.007 41.095 136.471 40.967 137.026 40.8496C137.591 40.7216 138.215 40.6576 138.898 40.6576C139.026 40.6576 139.175 40.6683 139.346 40.6896C139.517 40.7003 139.687 40.7216 139.858 40.7536C140.029 40.775 140.194 40.807 140.354 40.8496C140.514 40.8816 140.642 40.9136 140.738 40.9456L140.402 42.5776ZM141.303 45.0576C141.303 44.3216 141.41 43.6763 141.623 43.1216C141.847 42.567 142.14 42.1083 142.503 41.7456C142.866 41.3723 143.282 41.095 143.751 40.9136C144.22 40.7216 144.7 40.6256 145.191 40.6256C146.343 40.6256 147.239 40.983 147.879 41.6976C148.53 42.4123 148.855 43.479 148.855 44.8976C148.855 45.0043 148.85 45.127 148.839 45.2656C148.839 45.3936 148.834 45.511 148.823 45.6176H143.303C143.356 46.2896 143.591 46.8123 144.007 47.1856C144.434 47.5483 145.047 47.7296 145.847 47.7296C146.316 47.7296 146.743 47.687 147.127 47.6016C147.522 47.5163 147.831 47.4256 148.055 47.3296L148.311 48.9136C148.204 48.967 148.055 49.0256 147.863 49.0896C147.682 49.143 147.468 49.191 147.223 49.2336C146.988 49.287 146.732 49.3296 146.455 49.3616C146.178 49.3936 145.895 49.4096 145.607 49.4096C144.871 49.4096 144.231 49.303 143.687 49.0896C143.143 48.8656 142.695 48.5616 142.343 48.1776C141.991 47.783 141.73 47.3243 141.559 46.8016C141.388 46.2683 141.303 45.687 141.303 45.0576ZM146.919 44.1936C146.919 43.927 146.882 43.6763 146.807 43.4416C146.732 43.1963 146.62 42.9883 146.471 42.8176C146.332 42.6363 146.156 42.4976 145.943 42.4016C145.74 42.295 145.495 42.2416 145.207 42.2416C144.908 42.2416 144.647 42.3003 144.423 42.4176C144.199 42.5243 144.007 42.6683 143.847 42.8496C143.698 43.031 143.58 43.239 143.495 43.4736C143.41 43.7083 143.351 43.9483 143.319 44.1936H146.919Z" fill="white"/>
</svg>
