<svg width="153" height="73" viewBox="0 0 153 73" fill="none" xmlns="http://www.w3.org/2000/svg">
<path opacity="0.5" d="M83.9686 45.2597C85.0289 41.5857 85.5992 37.7676 85.6591 33.942C85.6699 30.1383 85.2256 26.3751 84.3388 22.7604C83.5244 19.2089 82.3404 15.8039 80.8123 12.6189C79.2982 9.42663 77.3008 6.59466 74.9115 4.25242C73.7024 3.07763 72.3456 2.12034 70.8832 1.41031C69.373 0.649132 67.7222 0.292019 66.0481 0.364353C64.1794 0.469186 62.3666 1.29776 60.8984 2.71808C59.4271 4.2148 58.3323 6.1476 57.7408 8.29241C57.4458 9.28679 57.2203 10.304 57.0664 11.3338C56.9458 12.3222 56.8696 13.3149 56.8379 14.3079C56.8055 15.2631 56.8265 16.217 56.9008 17.1634L56.9759 18.6339L57.1407 20.0006C57.6143 23.4678 58.3788 26.8582 59.4235 30.1237C60.4085 33.3421 61.787 36.3613 63.5177 39.0915C65.1613 41.6792 67.1299 43.9587 69.3619 45.8588L70.1588 46.5573L71.0067 47.161C71.5598 47.5617 72.1353 47.9802 72.6802 48.3506C73.8002 49.0736 74.9543 49.7269 76.1378 50.3077C76.8254 50.6402 77.5313 50.9315 78.2372 51.2229C77.884 51.9457 77.5186 52.5792 77.1225 53.3396C75.5711 56.0765 73.7193 58.5742 71.617 60.7658C69.5825 62.835 67.3023 64.5448 64.855 65.8362C60.122 68.1392 55.0494 69.1861 50.0186 68.8983C45.3048 68.6245 40.6762 67.5852 36.2664 65.8104C32.2227 64.2012 28.312 62.2083 24.5726 59.851C21.2739 57.8266 18.1049 55.5419 15.0868 53.0124C10.6444 49.3314 6.78265 44.8015 3.65473 39.6023C1.47016 35.8139 0.631198 33.3285 0.453801 33.5219C0.515056 34.1676 0.669621 34.7918 0.911039 35.3685C1.47632 37.0574 2.15439 38.6873 2.93924 40.2438C5.85238 45.7922 9.61467 50.6485 14.0503 54.5857C17.0503 57.3094 20.2182 59.7795 23.5312 61.9783C27.3029 64.5322 31.262 66.7129 35.3687 68.4985C39.9378 70.4941 44.756 71.7132 49.6798 72.1193C55.1126 72.5778 60.6193 71.5668 65.772 69.1649C68.5382 67.7814 71.1229 65.9179 73.4345 63.6402C75.8265 61.2318 77.9358 58.4652 79.7026 55.4187C80.3235 54.3785 80.8947 53.3008 81.4134 52.1907C84.2063 53.0278 87.0697 53.5667 89.9688 53.8011C97.6896 54.3482 105.488 53.5618 113.114 51.4672C118.646 49.9939 124.088 48.009 129.385 45.5316C135.271 42.8384 140.918 39.4274 146.23 35.3576L147.844 34.0134L147.035 35.999C146.213 38.1579 145.52 40.2915 144.877 42.3303C143.784 45.9531 142.926 49.6556 142.312 53.4054C141.264 59.8233 141.362 63.8224 141.805 63.8571C142.249 63.8917 143.065 60.0387 144.638 54.0465C145.457 51.0405 146.453 47.4909 147.79 43.6544C148.455 41.721 149.191 39.7249 150.006 37.6964C150.427 36.6768 150.85 35.6428 151.297 34.6124C151.522 34.09 151.749 33.6409 152.037 32.8504C152.436 31.8264 152.542 30.6934 152.339 29.6241C152.219 29.0553 151.998 28.5267 151.69 28.071C151.444 27.7185 151.158 27.4074 150.839 27.1456C150.358 26.7739 149.843 26.4648 149.301 26.2238C148.451 25.8095 147.596 25.4238 146.769 25.0274C145.096 24.2613 143.479 23.5469 141.931 22.8717C138.827 21.5784 136.031 20.5632 133.582 19.7436C128.821 18.1829 125.699 17.617 125.531 18.1767C125.363 18.7364 128.148 20.3486 132.688 22.6658L140.68 26.6329C142.185 27.3749 143.755 28.1555 145.39 28.9747C146.204 29.3837 147.042 29.7962 147.88 30.2087C147.903 30.2184 147.928 30.222 147.953 30.2193C147.251 30.5999 146.271 31.1741 144.897 32.0567C139.526 35.4337 133.985 38.4059 128.311 40.9542C123.167 43.195 117.908 45.0092 112.574 46.3827C105.316 48.3092 97.9057 49.0274 90.5672 48.5154C88.144 48.3082 85.7468 47.8804 83.3976 47.2358C83.6164 46.5812 83.8352 45.9266 84.0296 45.2685L83.9686 45.2597ZM77.8922 45.2176C76.8366 44.7208 75.8066 44.1584 74.8067 43.5329C74.3166 43.2143 73.8327 42.8527 73.3345 42.5037L72.6004 41.9747L71.9031 41.3635C69.968 39.7568 68.265 37.8092 66.8513 35.5861C65.3433 33.2424 64.1389 30.6461 63.2743 27.8751C62.3073 24.9564 61.596 21.9202 61.1507 18.8113L60.9958 17.6358L60.9141 16.4709C60.8558 15.7028 60.8339 14.9297 60.8484 14.1551C60.8353 13.3795 60.9442 12.7091 61.0005 11.8852C61.1007 11.1758 61.2516 10.4749 61.4515 9.78969C61.7 8.5792 62.2823 7.48051 63.1075 6.66463C63.9327 5.84876 64.9546 5.36151 66.0142 5.27872C68.457 5.3301 70.7705 6.36989 72.5584 8.22003C74.6168 10.1999 76.3469 12.5975 77.6712 15.3054C79.0711 18.1533 80.1641 21.202 80.9266 24.3861C81.7534 27.557 82.1875 30.8675 82.2164 34.2204C82.1836 37.5671 81.7025 40.9108 80.7906 44.1311C80.6022 44.8338 80.3895 45.5331 80.1666 46.2163C79.3874 45.9144 78.6224 45.6 77.8148 45.2356" fill="#F6A22E"/>
</svg>
