<svg width="40" height="41" viewBox="0 0 40 41" fill="none" xmlns="http://www.w3.org/2000/svg">
<path opacity="0.4" d="M31.6666 17.7575V29.6742C31.6166 34.4242 30.3166 35.6242 25.3666 35.6242H9.63336C4.60003 35.6242 3.33331 34.3742 3.33331 29.4075V17.7575C3.33331 13.2575 4.38331 11.8075 8.33331 11.5742C8.73331 11.5575 9.1667 11.5409 9.63336 11.5409H25.3666C30.3999 11.5409 31.6666 12.7909 31.6666 17.7575Z" fill="#F1F1FF"/>
<path d="M36.6666 11.8409V23.4909C36.6666 27.9909 35.6166 29.4409 31.6666 29.6742V17.7575C31.6666 12.7909 30.3999 11.5409 25.3666 11.5409H9.63336C9.1667 11.5409 8.73331 11.5575 8.33331 11.5742C8.38331 6.82421 9.68336 5.62421 14.6334 5.62421H30.3666C35.3999 5.62421 36.6666 6.87421 36.6666 11.8409Z" fill="#F1F1FF"/>
<path d="M11.6001 31.5575H8.73334C8.05 31.5575 7.48334 30.9909 7.48334 30.3075C7.48334 29.6242 8.05 29.0575 8.73334 29.0575H11.6001C12.2834 29.0575 12.8501 29.6242 12.8501 30.3075C12.8501 30.9909 12.3001 31.5575 11.6001 31.5575Z" fill="#F1F1FF"/>
<path d="M20.9166 31.5575H15.1833C14.5 31.5575 13.9333 30.9909 13.9333 30.3075C13.9333 29.6242 14.5 29.0575 15.1833 29.0575H20.9166C21.6 29.0575 22.1666 29.6242 22.1666 30.3075C22.1666 30.9909 21.6166 31.5575 20.9166 31.5575Z" fill="#F1F1FF"/>
<path d="M31.6666 20.3909H3.33331V22.8909H31.6666V20.3909Z" fill="#F1F1FF"/>
</svg>
