<svg width="40" height="41" viewBox="0 0 40 41" fill="none" xmlns="http://www.w3.org/2000/svg">
<path opacity="0.4" d="M35.6167 19.6075V29.5909C35.6167 34.1909 31.8834 37.9242 27.2834 37.9242H12.7167C8.1167 37.9242 4.38336 34.1909 4.38336 29.5909V19.7242C5.65003 21.0909 7.45003 21.8742 9.40003 21.8742C11.5 21.8742 13.5167 20.8242 14.7834 19.1409C15.9167 20.8242 17.85 21.8742 20 21.8742C22.1334 21.8742 24.0334 20.8742 25.1834 19.2075C26.4667 20.8575 28.45 21.8742 30.5167 21.8742C32.5334 21.8742 34.3667 21.0575 35.6167 19.6075Z" fill="#F1F1FF"/>
<path d="M24.9833 2.70754H14.9833L13.75 14.9742C13.65 16.1075 13.8166 17.1742 14.2333 18.1409C15.2 20.4075 17.4666 21.8742 20 21.8742C22.5666 21.8742 24.7833 20.4409 25.7833 18.1575C26.0833 17.4409 26.2666 16.6075 26.2833 15.7575V15.4409L24.9833 2.70754Z" fill="#F1F1FF"/>
<path opacity="0.6" d="M37.2667 14.4075L36.7833 9.79088C36.0833 4.75754 33.8 2.70754 28.9167 2.70754H22.5167L23.75 15.2075C23.7667 15.3742 23.7833 15.5575 23.7833 15.8742C23.8833 16.7409 24.15 17.5409 24.55 18.2575C25.75 20.4575 28.0833 21.8742 30.5167 21.8742C32.7333 21.8742 34.7333 20.8909 35.9833 19.1575C36.9833 17.8242 37.4333 16.1409 37.2667 14.4075Z" fill="#F1F1FF"/>
<path opacity="0.6" d="M10.9834 2.70754C6.08336 2.70754 3.81669 4.75754 3.10003 9.84088L2.65003 14.4242C2.48336 16.2075 2.96669 17.9409 4.01669 19.2909C5.28336 20.9409 7.23336 21.8742 9.40003 21.8742C11.8334 21.8742 14.1667 20.4575 15.35 18.2909C15.7834 17.5409 16.0667 16.6742 16.15 15.7742L17.45 2.72421H10.9834V2.70754Z" fill="#F1F1FF"/>
<path d="M18.9167 28.3909C16.8 28.6075 15.2 30.4075 15.2 32.5409V37.9242H24.7833V33.1242C24.8 29.6409 22.75 27.9909 18.9167 28.3909Z" fill="#F1F1FF"/>
</svg>
