<svg width="40" height="41" viewBox="0 0 40 41" fill="none" xmlns="http://www.w3.org/2000/svg">
<path opacity="0.4" d="M36.6667 13.6409V25.8909C36.1833 25.6575 35.65 25.4909 35.05 25.3909L34.5333 25.3075L34.1 24.4075C33.1833 22.5409 31.6833 21.4575 30 21.4575C28.3167 21.4575 26.8167 22.5409 25.9 24.4075L25.45 25.3075L24.95 25.3909C22.9667 25.7242 21.5333 26.8242 21.0167 28.3909C20.5167 29.9742 21.0333 31.7075 22.45 33.1409L22.9667 33.6575L22.9167 33.8575C22.5833 35.3409 22.7167 36.4742 23.0334 37.2909H13.0167C6.95001 37.2909 3.33334 33.6742 3.33334 27.6075V13.6409C3.33334 7.57421 6.95001 3.95754 13.0167 3.95754H26.9833C33.05 3.95754 36.6667 7.57421 36.6667 13.6409Z" fill="#F1F1FF"/>
<path d="M31.8667 25.5242L32.4 26.6075C32.6667 27.1409 33.35 27.6409 33.9167 27.7409L34.6333 27.8575C36.8167 28.2242 37.3167 29.8242 35.7667 31.3909L35.1 32.0575C34.65 32.5075 34.4167 33.3742 34.55 34.0075L34.6333 34.4075C35.2333 37.0409 33.8333 38.0575 31.55 36.6742L31.0667 36.3742C30.4834 36.0242 29.5166 36.0242 28.9333 36.3742L28.45 36.6742C26.15 38.0575 24.7667 37.0409 25.3667 34.4075L25.45 34.0075C25.5833 33.3909 25.35 32.5075 24.9 32.0575L24.2334 31.3909C22.6834 29.8075 23.1833 28.2242 25.3667 27.8575L26.0833 27.7409C26.6667 27.6409 27.3333 27.1409 27.6 26.6075L28.1333 25.5242C29.1667 23.4409 30.8333 23.4409 31.8667 25.5242Z" fill="#F1F1FF"/>
<path fill-rule="evenodd" clip-rule="evenodd" d="M26.8825 13.8196C27.4281 14.2425 27.5276 15.0277 27.1046 15.5734L23.2472 20.5495C22.2558 21.8034 20.4277 22.0321 19.1524 21.0466L19.1437 21.0399L16.0994 18.6444C15.9113 18.5015 15.649 18.5371 15.5062 18.7213C15.506 18.7215 15.5063 18.7212 15.5062 18.7213L11.5403 23.8703C11.119 24.4172 10.3342 24.5191 9.78723 24.0978C9.2403 23.6766 9.13843 22.8917 9.55969 22.3448L13.5276 17.1932C14.5174 15.9122 16.3528 15.6807 17.631 16.6684L17.6397 16.6752L20.684 19.0707C20.874 19.215 21.1418 19.1779 21.2836 19.002L25.1288 14.0417C25.5517 13.4961 26.3369 13.3966 26.8825 13.8196Z" fill="#F1F1FF"/>
</svg>
